<svg xmlns="http://www.w3.org/2000/svg" viewBox="0 0 758 616" width="758" height="616" font-family="system-ui, -apple-system, &quot;Segoe UI&quot;, sans-serif">
<style>
  .surface { fill: #fcfcfb; }
  .ink     { fill: #0b0b0b; }
  .ink2    { fill: #52514e; }
  .muted   { fill: #898781; }
  .grid    { stroke: #e1e0d9; }
  .axis    { stroke: #c3c2b7; }
  .dot-practical  { fill: #2a78d6; stroke: #fcfcfb; }
  .dot-pratt      { fill: #eb6834; stroke: #fcfcfb; }
  .dot-historical { fill: #898781; stroke: #fcfcfb; }
  .rule    { stroke: #e1e0d9; }
  @media (prefers-color-scheme: dark) {
    .surface { fill: #1a1a19; }
    .ink     { fill: #ffffff; }
    .ink2    { fill: #c3c2b7; }
    .grid    { stroke: #2c2c2a; }
    .axis    { stroke: #383835; }
    .rule    { stroke: #2c2c2a; }
    .dot-practical  { fill: #3987e5; stroke: #1a1a19; }
    .dot-pratt      { fill: #d95926; stroke: #1a1a19; }
    .dot-historical { fill: #898781; stroke: #1a1a19; }
  }
</style>
<rect class="surface" width="758" height="616"/><text class="ink" x="18" y="30" font-size="15" font-weight="600">Shellsort gap sequences: where the gaps actually land</text><text class="ink2" x="18" y="50" font-size="11.5">Every gap below N = 100,000, on a log scale. One dot per gap. Spacing shows growth ratio; density shows pass count.</text><circle class="dot-practical" cx="22.0" cy="70" r="3.0" stroke-width="1.2"/><text class="ink2" x="32.0" y="74" font-size="11">practical candidates</text><circle class="dot-pratt" cx="178.0" cy="70" r="3.0" stroke-width="1.2"/><text class="ink2" x="188.0" y="74" font-size="11">Pratt family</text><circle class="dot-historical" cx="286.8" cy="70" r="3.0" stroke-width="1.2"/><text class="ink2" x="296.8" y="74" font-size="11">historical / controls</text><line class="grid" x1="306.0" y1="92.0" x2="306.0" y2="552.0" stroke-width="1"/><text class="muted" x="306.0" y="86.0" font-size="10" text-anchor="middle">1</text><line class="grid" x1="391.6" y1="92.0" x2="391.6" y2="552.0" stroke-width="1"/><text class="muted" x="391.6" y="86.0" font-size="10" text-anchor="middle">10</text><line class="grid" x1="477.2" y1="92.0" x2="477.2" y2="552.0" stroke-width="1"/><text class="muted" x="477.2" y="86.0" font-size="10" text-anchor="middle">100</text><line class="grid" x1="562.8" y1="92.0" x2="562.8" y2="552.0" stroke-width="1"/><text class="muted" x="562.8" y="86.0" font-size="10" text-anchor="middle">1,000</text><line class="grid" x1="648.4" y1="92.0" x2="648.4" y2="552.0" stroke-width="1"/><text class="muted" x="648.4" y="86.0" font-size="10" text-anchor="middle">10,000</text><line class="grid" x1="734.0" y1="92.0" x2="734.0" y2="552.0" stroke-width="1"/><text class="muted" x="734.0" y="86.0" font-size="10" text-anchor="middle">100,000</text><text class="muted" x="520.0" y="582.0" font-size="10" text-anchor="middle">gap value</text><text class="muted" x="228.0" y="86.0" font-size="10" text-anchor="middle">ratio</text><text class="muted" x="278.0" y="86.0" font-size="10" text-anchor="middle">passes</text><text class="ink" x="18" y="110.0" font-size="11.5">Tokuda 1992</text><text class="muted" x="18" y="120.0" font-size="9">recommended default</text><circle class="dot-practical" cx="306.00" cy="108.0" r="3.0" stroke-width="1.2"/><circle class="dot-practical" cx="357.54" cy="108.0" r="3.0" stroke-width="1.2"/><circle class="dot-practical" cx="387.68" cy="108.0" r="3.0" stroke-width="1.2"/><circle class="dot-practical" cx="417.37" cy="108.0" r="3.0" stroke-width="1.2"/><circle class="dot-practical" cx="448.33" cy="108.0" r="3.0" stroke-width="1.2"/><circle class="dot-practical" cx="478.30" cy="108.0" r="3.0" stroke-width="1.2"/><circle class="dot-practical" cx="508.65" cy="108.0" r="3.0" stroke-width="1.2"/><circle class="dot-practical" cx="538.85" cy="108.0" r="3.0" stroke-width="1.2"/><circle class="dot-practical" cx="569.02" cy="108.0" r="3.0" stroke-width="1.2"/><circle class="dot-practical" cx="599.17" cy="108.0" r="3.0" stroke-width="1.2"/><circle class="dot-practical" cx="629.32" cy="108.0" r="3.0" stroke-width="1.2"/><circle class="dot-practical" cx="659.47" cy="108.0" r="3.0" stroke-width="1.2"/><circle class="dot-practical" cx="689.61" cy="108.0" r="3.0" stroke-width="1.2"/><circle class="dot-practical" cx="719.76" cy="108.0" r="3.0" stroke-width="1.2"/><text class="ink2" x="228.0" y="111.0" font-size="10.5" text-anchor="middle" font-variant-numeric="tabular-nums">2.25</text><text class="ink2" x="278.0" y="111.0" font-size="10.5" text-anchor="middle" font-variant-numeric="tabular-nums">14</text><line class="rule" x1="18" y1="124.0" x2="740.0" y2="124.0" stroke-width="1"/><text class="ink" x="18" y="135.0" font-size="11.5">Ciura 2001 (Large)</text><text class="muted" x="18" y="145.0" font-size="9">best measured comparisons</text><circle class="dot-practical" cx="306.00" cy="133.0" r="3.0" stroke-width="1.2"/><circle class="dot-practical" cx="357.54" cy="133.0" r="3.0" stroke-width="1.2"/><circle class="dot-practical" cx="391.60" cy="133.0" r="3.0" stroke-width="1.2"/><circle class="dot-practical" cx="422.56" cy="133.0" r="3.0" stroke-width="1.2"/><circle class="dot-practical" cx="456.30" cy="133.0" r="3.0" stroke-width="1.2"/><circle class="dot-practical" cx="487.52" cy="133.0" r="3.0" stroke-width="1.2"/><circle class="dot-practical" cx="518.17" cy="133.0" r="3.0" stroke-width="1.2"/><circle class="dot-practical" cx="549.59" cy="133.0" r="3.0" stroke-width="1.2"/><circle class="dot-practical" cx="583.60" cy="133.0" r="3.0" stroke-width="1.2"/><circle class="dot-practical" cx="613.75" cy="133.0" r="3.0" stroke-width="1.2"/><circle class="dot-practical" cx="643.89" cy="133.0" r="3.0" stroke-width="1.2"/><circle class="dot-practical" cx="674.04" cy="133.0" r="3.0" stroke-width="1.2"/><circle class="dot-practical" cx="704.18" cy="133.0" r="3.0" stroke-width="1.2"/><text class="ink2" x="228.0" y="136.0" font-size="10.5" text-anchor="middle" font-variant-numeric="tabular-nums">2.32</text><text class="ink2" x="278.0" y="136.0" font-size="10.5" text-anchor="middle" font-variant-numeric="tabular-nums">13</text><line class="rule" x1="18" y1="149.0" x2="740.0" y2="149.0" stroke-width="1"/><text class="ink" x="18" y="160.0" font-size="11.5">Ciura-1000</text><text class="muted" x="18" y="170.0" font-size="9">searched for N=1000</text><circle class="dot-practical" cx="306.00" cy="158.0" r="3.0" stroke-width="1.2"/><circle class="dot-practical" cx="357.54" cy="158.0" r="3.0" stroke-width="1.2"/><circle class="dot-practical" cx="391.60" cy="158.0" r="3.0" stroke-width="1.2"/><circle class="dot-practical" cx="422.56" cy="158.0" r="3.0" stroke-width="1.2"/><circle class="dot-practical" cx="456.30" cy="158.0" r="3.0" stroke-width="1.2"/><circle class="dot-practical" cx="493.73" cy="158.0" r="3.0" stroke-width="1.2"/><circle class="dot-practical" cx="529.56" cy="158.0" r="3.0" stroke-width="1.2"/><circle class="dot-practical" cx="562.61" cy="158.0" r="3.0" stroke-width="1.2"/><circle class="dot-practical" cx="592.75" cy="158.0" r="3.0" stroke-width="1.2"/><circle class="dot-practical" cx="622.89" cy="158.0" r="3.0" stroke-width="1.2"/><circle class="dot-practical" cx="653.04" cy="158.0" r="3.0" stroke-width="1.2"/><circle class="dot-practical" cx="683.18" cy="158.0" r="3.0" stroke-width="1.2"/><circle class="dot-practical" cx="713.33" cy="158.0" r="3.0" stroke-width="1.2"/><text class="ink2" x="228.0" y="161.0" font-size="10.5" text-anchor="middle" font-variant-numeric="tabular-nums">2.43</text><text class="ink2" x="278.0" y="161.0" font-size="10.5" text-anchor="middle" font-variant-numeric="tabular-nums">13</text><line class="rule" x1="18" y1="174.0" x2="740.0" y2="174.0" stroke-width="1"/><text class="ink" x="18" y="185.0" font-size="11.5">Ciura-128</text><text class="muted" x="18" y="195.0" font-size="9">searched for N=128</text><circle class="dot-practical" cx="306.00" cy="183.0" r="3.0" stroke-width="1.2"/><circle class="dot-practical" cx="357.54" cy="183.0" r="3.0" stroke-width="1.2"/><circle class="dot-practical" cx="387.68" cy="183.0" r="3.0" stroke-width="1.2"/><circle class="dot-practical" cx="424.15" cy="183.0" r="3.0" stroke-width="1.2"/><circle class="dot-practical" cx="471.16" cy="183.0" r="3.0" stroke-width="1.2"/><circle class="dot-practical" cx="485.79" cy="183.0" r="3.0" stroke-width="1.2"/><circle class="dot-practical" cx="515.87" cy="183.0" r="3.0" stroke-width="1.2"/><circle class="dot-practical" cx="545.98" cy="183.0" r="3.0" stroke-width="1.2"/><circle class="dot-practical" cx="576.12" cy="183.0" r="3.0" stroke-width="1.2"/><circle class="dot-practical" cx="606.26" cy="183.0" r="3.0" stroke-width="1.2"/><circle class="dot-practical" cx="636.40" cy="183.0" r="3.0" stroke-width="1.2"/><circle class="dot-practical" cx="666.55" cy="183.0" r="3.0" stroke-width="1.2"/><circle class="dot-practical" cx="696.70" cy="183.0" r="3.0" stroke-width="1.2"/><circle class="dot-practical" cx="726.84" cy="183.0" r="3.0" stroke-width="1.2"/><text class="ink2" x="228.0" y="186.0" font-size="10.5" text-anchor="middle" font-variant-numeric="tabular-nums">2.25</text><text class="ink2" x="278.0" y="186.0" font-size="10.5" text-anchor="middle" font-variant-numeric="tabular-nums">14</text><line class="rule" x1="18" y1="199.0" x2="740.0" y2="199.0" stroke-width="1"/><text class="ink" x="18" y="210.0" font-size="11.5">Lee 2021</text><text class="muted" x="18" y="220.0" font-size="9">tuned Tokuda variant</text><circle class="dot-practical" cx="306.00" cy="208.0" r="3.0" stroke-width="1.2"/><circle class="dot-practical" cx="357.54" cy="208.0" r="3.0" stroke-width="1.2"/><circle class="dot-practical" cx="387.68" cy="208.0" r="3.0" stroke-width="1.2"/><circle class="dot-practical" cx="417.37" cy="208.0" r="3.0" stroke-width="1.2"/><circle class="dot-practical" cx="447.51" cy="208.0" r="3.0" stroke-width="1.2"/><circle class="dot-practical" cx="477.94" cy="208.0" r="3.0" stroke-width="1.2"/><circle class="dot-practical" cx="508.16" cy="208.0" r="3.0" stroke-width="1.2"/><circle class="dot-practical" cx="538.20" cy="208.0" r="3.0" stroke-width="1.2"/><circle class="dot-practical" cx="568.25" cy="208.0" r="3.0" stroke-width="1.2"/><circle class="dot-practical" cx="598.31" cy="208.0" r="3.0" stroke-width="1.2"/><circle class="dot-practical" cx="628.35" cy="208.0" r="3.0" stroke-width="1.2"/><circle class="dot-practical" cx="658.39" cy="208.0" r="3.0" stroke-width="1.2"/><circle class="dot-practical" cx="688.43" cy="208.0" r="3.0" stroke-width="1.2"/><circle class="dot-practical" cx="718.47" cy="208.0" r="3.0" stroke-width="1.2"/><text class="ink2" x="228.0" y="211.0" font-size="10.5" text-anchor="middle" font-variant-numeric="tabular-nums">2.24</text><text class="ink2" x="278.0" y="211.0" font-size="10.5" text-anchor="middle" font-variant-numeric="tabular-nums">14</text><line class="rule" x1="18" y1="224.0" x2="740.0" y2="224.0" stroke-width="1"/><text class="ink" x="18" y="235.0" font-size="11.5">Skean 2023 (Ours-B)</text><text class="muted" x="18" y="245.0" font-size="9">grid-searched, N=10000</text><circle class="dot-practical" cx="306.00" cy="233.0" r="3.0" stroke-width="1.2"/><circle class="dot-practical" cx="357.54" cy="233.0" r="3.0" stroke-width="1.2"/><circle class="dot-practical" cx="391.60" cy="233.0" r="3.0" stroke-width="1.2"/><circle class="dot-practical" cx="428.52" cy="233.0" r="3.0" stroke-width="1.2"/><circle class="dot-practical" cx="464.99" cy="233.0" r="3.0" stroke-width="1.2"/><circle class="dot-practical" cx="500.47" cy="233.0" r="3.0" stroke-width="1.2"/><circle class="dot-practical" cx="536.13" cy="233.0" r="3.0" stroke-width="1.2"/><circle class="dot-practical" cx="571.74" cy="233.0" r="3.0" stroke-width="1.2"/><circle class="dot-practical" cx="607.33" cy="233.0" r="3.0" stroke-width="1.2"/><circle class="dot-practical" cx="642.91" cy="233.0" r="3.0" stroke-width="1.2"/><circle class="dot-practical" cx="678.49" cy="233.0" r="3.0" stroke-width="1.2"/><circle class="dot-practical" cx="714.07" cy="233.0" r="3.0" stroke-width="1.2"/><text class="ink2" x="228.0" y="236.0" font-size="10.5" text-anchor="middle" font-variant-numeric="tabular-nums">2.60</text><text class="ink2" x="278.0" y="236.0" font-size="10.5" text-anchor="middle" font-variant-numeric="tabular-nums">12</text><line class="rule" x1="18" y1="249.0" x2="740.0" y2="249.0" stroke-width="1"/><text class="ink" x="18" y="260.0" font-size="11.5">Knuth 1973</text><text class="muted" x="18" y="270.0" font-size="9">integer-only fallback</text><circle class="dot-practical" cx="306.00" cy="258.0" r="3.0" stroke-width="1.2"/><circle class="dot-practical" cx="357.54" cy="258.0" r="3.0" stroke-width="1.2"/><circle class="dot-practical" cx="401.35" cy="258.0" r="3.0" stroke-width="1.2"/><circle class="dot-practical" cx="443.14" cy="258.0" r="3.0" stroke-width="1.2"/><circle class="dot-practical" cx="484.29" cy="258.0" r="3.0" stroke-width="1.2"/><circle class="dot-practical" cx="525.23" cy="258.0" r="3.0" stroke-width="1.2"/><circle class="dot-practical" cx="566.11" cy="258.0" r="3.0" stroke-width="1.2"/><circle class="dot-practical" cx="606.96" cy="258.0" r="3.0" stroke-width="1.2"/><circle class="dot-practical" cx="647.80" cy="258.0" r="3.0" stroke-width="1.2"/><circle class="dot-practical" cx="688.65" cy="258.0" r="3.0" stroke-width="1.2"/><text class="ink2" x="228.0" y="261.0" font-size="10.5" text-anchor="middle" font-variant-numeric="tabular-nums">3.01</text><text class="ink2" x="278.0" y="261.0" font-size="10.5" text-anchor="middle" font-variant-numeric="tabular-nums">10</text><line class="rule" x1="18" y1="274.0" x2="740.0" y2="274.0" stroke-width="1"/><text class="ink" x="18" y="285.0" font-size="11.5">Gonnet-Baeza-Yates 1991</text><text class="muted" x="18" y="295.0" font-size="9">N-derived, ratio 2.2</text><circle class="dot-historical" cx="306.00" cy="283.0" r="3.0" stroke-width="1.2"/><circle class="dot-historical" cx="346.84" cy="283.0" r="3.0" stroke-width="1.2"/><circle class="dot-historical" cx="378.34" cy="283.0" r="3.0" stroke-width="1.2"/><circle class="dot-historical" cx="409.07" cy="283.0" r="3.0" stroke-width="1.2"/><circle class="dot-historical" cx="440.24" cy="283.0" r="3.0" stroke-width="1.2"/><circle class="dot-historical" cx="469.82" cy="283.0" r="3.0" stroke-width="1.2"/><circle class="dot-historical" cx="499.26" cy="283.0" r="3.0" stroke-width="1.2"/><circle class="dot-historical" cx="528.74" cy="283.0" r="3.0" stroke-width="1.2"/><circle class="dot-historical" cx="558.09" cy="283.0" r="3.0" stroke-width="1.2"/><circle class="dot-historical" cx="587.42" cy="283.0" r="3.0" stroke-width="1.2"/><circle class="dot-historical" cx="616.75" cy="283.0" r="3.0" stroke-width="1.2"/><circle class="dot-historical" cx="646.06" cy="283.0" r="3.0" stroke-width="1.2"/><circle class="dot-historical" cx="675.38" cy="283.0" r="3.0" stroke-width="1.2"/><circle class="dot-historical" cx="704.69" cy="283.0" r="3.0" stroke-width="1.2"/><text class="ink2" x="228.0" y="286.0" font-size="10.5" text-anchor="middle" font-variant-numeric="tabular-nums">2.21</text><text class="ink2" x="278.0" y="286.0" font-size="10.5" text-anchor="middle" font-variant-numeric="tabular-nums">14</text><line class="rule" x1="18" y1="299.0" x2="740.0" y2="299.0" stroke-width="1"/><text class="ink" x="18" y="310.0" font-size="11.5">Sedgewick 1986</text><text class="muted" x="18" y="320.0" font-size="9">current repo default</text><circle class="dot-historical" cx="306.00" cy="308.0" r="3.0" stroke-width="1.2"/><circle class="dot-historical" cx="365.83" cy="308.0" r="3.0" stroke-width="1.2"/><circle class="dot-historical" cx="415.46" cy="308.0" r="3.0" stroke-width="1.2"/><circle class="dot-historical" cx="444.05" cy="308.0" r="3.0" stroke-width="1.2"/><circle class="dot-historical" cx="480.40" cy="308.0" r="3.0" stroke-width="1.2"/><circle class="dot-historical" cx="504.60" cy="308.0" r="3.0" stroke-width="1.2"/><circle class="dot-historical" cx="537.40" cy="308.0" r="3.0" stroke-width="1.2"/><circle class="dot-historical" cx="560.06" cy="308.0" r="3.0" stroke-width="1.2"/><circle class="dot-historical" cx="591.45" cy="308.0" r="3.0" stroke-width="1.2"/><circle class="dot-historical" cx="613.44" cy="308.0" r="3.0" stroke-width="1.2"/><circle class="dot-historical" cx="644.19" cy="308.0" r="3.0" stroke-width="1.2"/><circle class="dot-historical" cx="665.87" cy="308.0" r="3.0" stroke-width="1.2"/><circle class="dot-historical" cx="696.32" cy="308.0" r="3.0" stroke-width="1.2"/><circle class="dot-historical" cx="717.85" cy="308.0" r="3.0" stroke-width="1.2"/><text class="ink2" x="228.0" y="311.0" font-size="10.5" text-anchor="middle" font-variant-numeric="tabular-nums">2.27</text><text class="ink2" x="278.0" y="311.0" font-size="10.5" text-anchor="middle" font-variant-numeric="tabular-nums">14</text><line class="rule" x1="18" y1="324.0" x2="740.0" y2="324.0" stroke-width="1"/><text class="ink" x="18" y="335.0" font-size="11.5">Sedgewick 1982</text><text class="muted" x="18" y="345.0" font-size="9">ratio 4</text><circle class="dot-historical" cx="306.00" cy="333.0" r="3.0" stroke-width="1.2"/><circle class="dot-historical" cx="383.30" cy="333.0" r="3.0" stroke-width="1.2"/><circle class="dot-historical" cx="422.56" cy="333.0" r="3.0" stroke-width="1.2"/><circle class="dot-historical" cx="467.48" cy="333.0" r="3.0" stroke-width="1.2"/><circle class="dot-historical" cx="515.61" cy="333.0" r="3.0" stroke-width="1.2"/><circle class="dot-historical" cx="565.42" cy="333.0" r="3.0" stroke-width="1.2"/><circle class="dot-historical" cx="616.09" cy="333.0" r="3.0" stroke-width="1.2"/><circle class="dot-historical" cx="667.19" cy="333.0" r="3.0" stroke-width="1.2"/><circle class="dot-historical" cx="718.51" cy="333.0" r="3.0" stroke-width="1.2"/><text class="ink2" x="228.0" y="336.0" font-size="10.5" text-anchor="middle" font-variant-numeric="tabular-nums">3.91</text><text class="ink2" x="278.0" y="336.0" font-size="10.5" text-anchor="middle" font-variant-numeric="tabular-nums">9</text><line class="rule" x1="18" y1="349.0" x2="740.0" y2="349.0" stroke-width="1"/><text class="ink" x="18" y="360.0" font-size="11.5">Incerpi-Sedgewick 1985</text><text class="muted" x="18" y="370.0" font-size="9">best asymptotic exponent</text><circle class="dot-historical" cx="306.00" cy="358.0" r="3.0" stroke-width="1.2"/><circle class="dot-historical" cx="346.84" cy="358.0" r="3.0" stroke-width="1.2"/><circle class="dot-historical" cx="378.34" cy="358.0" r="3.0" stroke-width="1.2"/><circle class="dot-historical" cx="419.18" cy="358.0" r="3.0" stroke-width="1.2"/><circle class="dot-historical" cx="449.91" cy="358.0" r="3.0" stroke-width="1.2"/><circle class="dot-historical" cx="481.41" cy="358.0" r="3.0" stroke-width="1.2"/><circle class="dot-historical" cx="522.25" cy="358.0" r="3.0" stroke-width="1.2"/><circle class="dot-historical" cx="557.24" cy="358.0" r="3.0" stroke-width="1.2"/><circle class="dot-historical" cx="587.97" cy="358.0" r="3.0" stroke-width="1.2"/><circle class="dot-historical" cx="619.47" cy="358.0" r="3.0" stroke-width="1.2"/><circle class="dot-historical" cx="660.31" cy="358.0" r="3.0" stroke-width="1.2"/><circle class="dot-historical" cx="693.82" cy="358.0" r="3.0" stroke-width="1.2"/><circle class="dot-historical" cx="728.81" cy="358.0" r="3.0" stroke-width="1.2"/><text class="ink2" x="228.0" y="361.0" font-size="10.5" text-anchor="middle" font-variant-numeric="tabular-nums">2.56</text><text class="ink2" x="278.0" y="361.0" font-size="10.5" text-anchor="middle" font-variant-numeric="tabular-nums">13</text><line class="rule" x1="18" y1="374.0" x2="740.0" y2="374.0" stroke-width="1"/><text class="ink" x="18" y="385.0" font-size="11.5">Hibbard 1963</text><text class="muted" x="18" y="395.0" font-size="9">repo alternative</text><circle class="dot-historical" cx="306.00" cy="383.0" r="3.0" stroke-width="1.2"/><circle class="dot-historical" cx="346.84" cy="383.0" r="3.0" stroke-width="1.2"/><circle class="dot-historical" cx="378.34" cy="383.0" r="3.0" stroke-width="1.2"/><circle class="dot-historical" cx="406.67" cy="383.0" r="3.0" stroke-width="1.2"/><circle class="dot-historical" cx="433.66" cy="383.0" r="3.0" stroke-width="1.2"/><circle class="dot-historical" cx="460.02" cy="383.0" r="3.0" stroke-width="1.2"/><circle class="dot-historical" cx="486.09" cy="383.0" r="3.0" stroke-width="1.2"/><circle class="dot-historical" cx="512.00" cy="383.0" r="3.0" stroke-width="1.2"/><circle class="dot-historical" cx="537.84" cy="383.0" r="3.0" stroke-width="1.2"/><circle class="dot-historical" cx="563.65" cy="383.0" r="3.0" stroke-width="1.2"/><circle class="dot-historical" cx="589.43" cy="383.0" r="3.0" stroke-width="1.2"/><circle class="dot-historical" cx="615.21" cy="383.0" r="3.0" stroke-width="1.2"/><circle class="dot-historical" cx="640.98" cy="383.0" r="3.0" stroke-width="1.2"/><circle class="dot-historical" cx="666.75" cy="383.0" r="3.0" stroke-width="1.2"/><circle class="dot-historical" cx="692.52" cy="383.0" r="3.0" stroke-width="1.2"/><circle class="dot-historical" cx="718.29" cy="383.0" r="3.0" stroke-width="1.2"/><text class="ink2" x="228.0" y="386.0" font-size="10.5" text-anchor="middle" font-variant-numeric="tabular-nums">2.00</text><text class="ink2" x="278.0" y="386.0" font-size="10.5" text-anchor="middle" font-variant-numeric="tabular-nums">16</text><line class="rule" x1="18" y1="399.0" x2="740.0" y2="399.0" stroke-width="1"/><text class="ink" x="18" y="410.0" font-size="11.5">Papernov-Stasevich 1965</text><text class="muted" x="18" y="420.0" font-size="9">ratio 2</text><circle class="dot-historical" cx="306.00" cy="408.0" r="3.0" stroke-width="1.2"/><circle class="dot-historical" cx="346.84" cy="408.0" r="3.0" stroke-width="1.2"/><circle class="dot-historical" cx="365.83" cy="408.0" r="3.0" stroke-width="1.2"/><circle class="dot-historical" cx="387.68" cy="408.0" r="3.0" stroke-width="1.2"/><circle class="dot-historical" cx="411.33" cy="408.0" r="3.0" stroke-width="1.2"/><circle class="dot-historical" cx="435.98" cy="408.0" r="3.0" stroke-width="1.2"/><circle class="dot-historical" cx="461.19" cy="408.0" r="3.0" stroke-width="1.2"/><circle class="dot-historical" cx="486.67" cy="408.0" r="3.0" stroke-width="1.2"/><circle class="dot-historical" cx="512.29" cy="408.0" r="3.0" stroke-width="1.2"/><circle class="dot-historical" cx="537.99" cy="408.0" r="3.0" stroke-width="1.2"/><circle class="dot-historical" cx="563.72" cy="408.0" r="3.0" stroke-width="1.2"/><circle class="dot-historical" cx="589.47" cy="408.0" r="3.0" stroke-width="1.2"/><circle class="dot-historical" cx="615.23" cy="408.0" r="3.0" stroke-width="1.2"/><circle class="dot-historical" cx="640.99" cy="408.0" r="3.0" stroke-width="1.2"/><circle class="dot-historical" cx="666.76" cy="408.0" r="3.0" stroke-width="1.2"/><circle class="dot-historical" cx="692.52" cy="408.0" r="3.0" stroke-width="1.2"/><circle class="dot-historical" cx="718.29" cy="408.0" r="3.0" stroke-width="1.2"/><text class="ink2" x="228.0" y="411.0" font-size="10.5" text-anchor="middle" font-variant-numeric="tabular-nums">2.00</text><text class="ink2" x="278.0" y="411.0" font-size="10.5" text-anchor="middle" font-variant-numeric="tabular-nums">17</text><line class="rule" x1="18" y1="424.0" x2="740.0" y2="424.0" stroke-width="1"/><text class="ink" x="18" y="435.0" font-size="11.5">Pratt 1971 (2^p 3^q)</text><text class="muted" x="18" y="445.0" font-size="9">best worst case</text><circle class="dot-pratt" cx="306.00" cy="433.0" r="3.0" stroke-width="1.2"/><circle class="dot-pratt" cx="331.77" cy="433.0" r="3.0" stroke-width="1.2"/><circle class="dot-pratt" cx="346.84" cy="433.0" r="3.0" stroke-width="1.2"/><circle class="dot-pratt" cx="357.54" cy="433.0" r="3.0" stroke-width="1.2"/><circle class="dot-pratt" cx="372.61" cy="433.0" r="3.0" stroke-width="1.2"/><circle class="dot-pratt" cx="383.30" cy="433.0" r="3.0" stroke-width="1.2"/><circle class="dot-pratt" cx="387.68" cy="433.0" r="3.0" stroke-width="1.2"/><circle class="dot-pratt" cx="398.38" cy="433.0" r="3.0" stroke-width="1.2"/><circle class="dot-pratt" cx="409.07" cy="433.0" r="3.0" stroke-width="1.2"/><circle class="dot-pratt" cx="413.45" cy="433.0" r="3.0" stroke-width="1.2"/><circle class="dot-pratt" cx="424.15" cy="433.0" r="3.0" stroke-width="1.2"/><circle class="dot-pratt" cx="428.52" cy="433.0" r="3.0" stroke-width="1.2"/><circle class="dot-pratt" cx="434.84" cy="433.0" r="3.0" stroke-width="1.2"/><circle class="dot-pratt" cx="439.22" cy="433.0" r="3.0" stroke-width="1.2"/><circle class="dot-pratt" cx="449.91" cy="433.0" r="3.0" stroke-width="1.2"/><circle class="dot-pratt" cx="454.29" cy="433.0" r="3.0" stroke-width="1.2"/><circle class="dot-pratt" cx="460.61" cy="433.0" r="3.0" stroke-width="1.2"/><circle class="dot-pratt" cx="464.99" cy="433.0" r="3.0" stroke-width="1.2"/><circle class="dot-pratt" cx="469.37" cy="433.0" r="3.0" stroke-width="1.2"/><circle class="dot-pratt" cx="475.68" cy="433.0" r="3.0" stroke-width="1.2"/><circle class="dot-pratt" cx="480.06" cy="433.0" r="3.0" stroke-width="1.2"/><circle class="dot-pratt" cx="486.38" cy="433.0" r="3.0" stroke-width="1.2"/><circle class="dot-pratt" cx="490.76" cy="433.0" r="3.0" stroke-width="1.2"/><circle class="dot-pratt" cx="495.13" cy="433.0" r="3.0" stroke-width="1.2"/><circle class="dot-pratt" cx="501.45" cy="433.0" r="3.0" stroke-width="1.2"/><circle class="dot-pratt" cx="505.83" cy="433.0" r="3.0" stroke-width="1.2"/><circle class="dot-pratt" cx="510.21" cy="433.0" r="3.0" stroke-width="1.2"/><circle class="dot-pratt" cx="512.15" cy="433.0" r="3.0" stroke-width="1.2"/><circle class="dot-pratt" cx="516.52" cy="433.0" r="3.0" stroke-width="1.2"/><circle class="dot-pratt" cx="520.90" cy="433.0" r="3.0" stroke-width="1.2"/><circle class="dot-pratt" cx="527.22" cy="433.0" r="3.0" stroke-width="1.2"/><circle class="dot-pratt" cx="531.60" cy="433.0" r="3.0" stroke-width="1.2"/><circle class="dot-pratt" cx="535.98" cy="433.0" r="3.0" stroke-width="1.2"/><circle class="dot-pratt" cx="537.91" cy="433.0" r="3.0" stroke-width="1.2"/><circle class="dot-pratt" cx="542.29" cy="433.0" r="3.0" stroke-width="1.2"/><circle class="dot-pratt" cx="546.67" cy="433.0" r="3.0" stroke-width="1.2"/><circle class="dot-pratt" cx="551.05" cy="433.0" r="3.0" stroke-width="1.2"/><circle class="dot-pratt" cx="552.99" cy="433.0" r="3.0" stroke-width="1.2"/><circle class="dot-pratt" cx="557.37" cy="433.0" r="3.0" stroke-width="1.2"/><circle class="dot-pratt" cx="561.74" cy="433.0" r="3.0" stroke-width="1.2"/><circle class="dot-pratt" cx="563.68" cy="433.0" r="3.0" stroke-width="1.2"/><circle class="dot-pratt" cx="568.06" cy="433.0" r="3.0" stroke-width="1.2"/><circle class="dot-pratt" cx="572.44" cy="433.0" r="3.0" stroke-width="1.2"/><circle class="dot-pratt" cx="576.82" cy="433.0" r="3.0" stroke-width="1.2"/><circle class="dot-pratt" cx="578.76" cy="433.0" r="3.0" stroke-width="1.2"/><circle class="dot-pratt" cx="583.13" cy="433.0" r="3.0" stroke-width="1.2"/><circle class="dot-pratt" cx="587.51" cy="433.0" r="3.0" stroke-width="1.2"/><circle class="dot-pratt" cx="589.45" cy="433.0" r="3.0" stroke-width="1.2"/><circle class="dot-pratt" cx="591.89" cy="433.0" r="3.0" stroke-width="1.2"/><circle class="dot-pratt" cx="593.83" cy="433.0" r="3.0" stroke-width="1.2"/><circle class="dot-pratt" cx="598.21" cy="433.0" r="3.0" stroke-width="1.2"/><circle class="dot-pratt" cx="602.59" cy="433.0" r="3.0" stroke-width="1.2"/><circle class="dot-pratt" cx="604.52" cy="433.0" r="3.0" stroke-width="1.2"/><circle class="dot-pratt" cx="608.90" cy="433.0" r="3.0" stroke-width="1.2"/><circle class="dot-pratt" cx="613.28" cy="433.0" r="3.0" stroke-width="1.2"/><circle class="dot-pratt" cx="615.22" cy="433.0" r="3.0" stroke-width="1.2"/><circle class="dot-pratt" cx="617.66" cy="433.0" r="3.0" stroke-width="1.2"/><circle class="dot-pratt" cx="619.60" cy="433.0" r="3.0" stroke-width="1.2"/><circle class="dot-pratt" cx="623.98" cy="433.0" r="3.0" stroke-width="1.2"/><circle class="dot-pratt" cx="628.35" cy="433.0" r="3.0" stroke-width="1.2"/><circle class="dot-pratt" cx="630.29" cy="433.0" r="3.0" stroke-width="1.2"/><circle class="dot-pratt" cx="632.73" cy="433.0" r="3.0" stroke-width="1.2"/><circle class="dot-pratt" cx="634.67" cy="433.0" r="3.0" stroke-width="1.2"/><circle class="dot-pratt" cx="639.05" cy="433.0" r="3.0" stroke-width="1.2"/><circle class="dot-pratt" cx="640.99" cy="433.0" r="3.0" stroke-width="1.2"/><circle class="dot-pratt" cx="643.43" cy="433.0" r="3.0" stroke-width="1.2"/><circle class="dot-pratt" cx="645.36" cy="433.0" r="3.0" stroke-width="1.2"/><circle class="dot-pratt" cx="649.74" cy="433.0" r="3.0" stroke-width="1.2"/><circle class="dot-pratt" cx="654.12" cy="433.0" r="3.0" stroke-width="1.2"/><circle class="dot-pratt" cx="656.06" cy="433.0" r="3.0" stroke-width="1.2"/><circle class="dot-pratt" cx="658.50" cy="433.0" r="3.0" stroke-width="1.2"/><circle class="dot-pratt" cx="660.44" cy="433.0" r="3.0" stroke-width="1.2"/><circle class="dot-pratt" cx="664.82" cy="433.0" r="3.0" stroke-width="1.2"/><circle class="dot-pratt" cx="666.75" cy="433.0" r="3.0" stroke-width="1.2"/><circle class="dot-pratt" cx="669.20" cy="433.0" r="3.0" stroke-width="1.2"/><circle class="dot-pratt" cx="671.13" cy="433.0" r="3.0" stroke-width="1.2"/><circle class="dot-pratt" cx="673.57" cy="433.0" r="3.0" stroke-width="1.2"/><circle class="dot-pratt" cx="675.51" cy="433.0" r="3.0" stroke-width="1.2"/><circle class="dot-pratt" cx="679.89" cy="433.0" r="3.0" stroke-width="1.2"/><circle class="dot-pratt" cx="681.83" cy="433.0" r="3.0" stroke-width="1.2"/><circle class="dot-pratt" cx="684.27" cy="433.0" r="3.0" stroke-width="1.2"/><circle class="dot-pratt" cx="686.21" cy="433.0" r="3.0" stroke-width="1.2"/><circle class="dot-pratt" cx="690.59" cy="433.0" r="3.0" stroke-width="1.2"/><circle class="dot-pratt" cx="692.52" cy="433.0" r="3.0" stroke-width="1.2"/><circle class="dot-pratt" cx="694.96" cy="433.0" r="3.0" stroke-width="1.2"/><circle class="dot-pratt" cx="696.90" cy="433.0" r="3.0" stroke-width="1.2"/><circle class="dot-pratt" cx="699.34" cy="433.0" r="3.0" stroke-width="1.2"/><circle class="dot-pratt" cx="701.28" cy="433.0" r="3.0" stroke-width="1.2"/><circle class="dot-pratt" cx="705.66" cy="433.0" r="3.0" stroke-width="1.2"/><circle class="dot-pratt" cx="707.60" cy="433.0" r="3.0" stroke-width="1.2"/><circle class="dot-pratt" cx="710.04" cy="433.0" r="3.0" stroke-width="1.2"/><circle class="dot-pratt" cx="711.97" cy="433.0" r="3.0" stroke-width="1.2"/><circle class="dot-pratt" cx="714.42" cy="433.0" r="3.0" stroke-width="1.2"/><circle class="dot-pratt" cx="716.35" cy="433.0" r="3.0" stroke-width="1.2"/><circle class="dot-pratt" cx="718.29" cy="433.0" r="3.0" stroke-width="1.2"/><circle class="dot-pratt" cx="720.73" cy="433.0" r="3.0" stroke-width="1.2"/><circle class="dot-pratt" cx="722.67" cy="433.0" r="3.0" stroke-width="1.2"/><circle class="dot-pratt" cx="725.11" cy="433.0" r="3.0" stroke-width="1.2"/><circle class="dot-pratt" cx="727.05" cy="433.0" r="3.0" stroke-width="1.2"/><circle class="dot-pratt" cx="731.43" cy="433.0" r="3.0" stroke-width="1.2"/><circle class="dot-pratt" cx="733.36" cy="433.0" r="3.0" stroke-width="1.2"/><text class="ink2" x="228.0" y="436.0" font-size="10.5" text-anchor="middle" font-variant-numeric="tabular-nums">1.12</text><text class="ink2" x="278.0" y="436.0" font-size="10.5" text-anchor="middle" font-variant-numeric="tabular-nums">101</text><line class="rule" x1="18" y1="449.0" x2="740.0" y2="449.0" stroke-width="1"/><text class="ink" x="18" y="460.0" font-size="11.5">Pratt-25 (2^p 5^q)</text><text class="muted" x="18" y="470.0" font-size="9">fewest exchanges</text><circle class="dot-pratt" cx="306.00" cy="458.0" r="3.0" stroke-width="1.2"/><circle class="dot-pratt" cx="331.77" cy="458.0" r="3.0" stroke-width="1.2"/><circle class="dot-pratt" cx="357.54" cy="458.0" r="3.0" stroke-width="1.2"/><circle class="dot-pratt" cx="365.83" cy="458.0" r="3.0" stroke-width="1.2"/><circle class="dot-pratt" cx="383.30" cy="458.0" r="3.0" stroke-width="1.2"/><circle class="dot-pratt" cx="391.60" cy="458.0" r="3.0" stroke-width="1.2"/><circle class="dot-pratt" cx="409.07" cy="458.0" r="3.0" stroke-width="1.2"/><circle class="dot-pratt" cx="417.37" cy="458.0" r="3.0" stroke-width="1.2"/><circle class="dot-pratt" cx="425.66" cy="458.0" r="3.0" stroke-width="1.2"/><circle class="dot-pratt" cx="434.84" cy="458.0" r="3.0" stroke-width="1.2"/><circle class="dot-pratt" cx="443.14" cy="458.0" r="3.0" stroke-width="1.2"/><circle class="dot-pratt" cx="451.43" cy="458.0" r="3.0" stroke-width="1.2"/><circle class="dot-pratt" cx="460.61" cy="458.0" r="3.0" stroke-width="1.2"/><circle class="dot-pratt" cx="468.90" cy="458.0" r="3.0" stroke-width="1.2"/><circle class="dot-pratt" cx="477.20" cy="458.0" r="3.0" stroke-width="1.2"/><circle class="dot-pratt" cx="485.50" cy="458.0" r="3.0" stroke-width="1.2"/><circle class="dot-pratt" cx="486.38" cy="458.0" r="3.0" stroke-width="1.2"/><circle class="dot-pratt" cx="494.67" cy="458.0" r="3.0" stroke-width="1.2"/><circle class="dot-pratt" cx="502.97" cy="458.0" r="3.0" stroke-width="1.2"/><circle class="dot-pratt" cx="511.26" cy="458.0" r="3.0" stroke-width="1.2"/><circle class="dot-pratt" cx="512.15" cy="458.0" r="3.0" stroke-width="1.2"/><circle class="dot-pratt" cx="520.44" cy="458.0" r="3.0" stroke-width="1.2"/><circle class="dot-pratt" cx="528.74" cy="458.0" r="3.0" stroke-width="1.2"/><circle class="dot-pratt" cx="537.03" cy="458.0" r="3.0" stroke-width="1.2"/><circle class="dot-pratt" cx="537.91" cy="458.0" r="3.0" stroke-width="1.2"/><circle class="dot-pratt" cx="545.33" cy="458.0" r="3.0" stroke-width="1.2"/><circle class="dot-pratt" cx="546.21" cy="458.0" r="3.0" stroke-width="1.2"/><circle class="dot-pratt" cx="554.50" cy="458.0" r="3.0" stroke-width="1.2"/><circle class="dot-pratt" cx="562.80" cy="458.0" r="3.0" stroke-width="1.2"/><circle class="dot-pratt" cx="563.68" cy="458.0" r="3.0" stroke-width="1.2"/><circle class="dot-pratt" cx="571.10" cy="458.0" r="3.0" stroke-width="1.2"/><circle class="dot-pratt" cx="571.98" cy="458.0" r="3.0" stroke-width="1.2"/><circle class="dot-pratt" cx="580.27" cy="458.0" r="3.0" stroke-width="1.2"/><circle class="dot-pratt" cx="588.57" cy="458.0" r="3.0" stroke-width="1.2"/><circle class="dot-pratt" cx="589.45" cy="458.0" r="3.0" stroke-width="1.2"/><circle class="dot-pratt" cx="596.86" cy="458.0" r="3.0" stroke-width="1.2"/><circle class="dot-pratt" cx="597.75" cy="458.0" r="3.0" stroke-width="1.2"/><circle class="dot-pratt" cx="605.16" cy="458.0" r="3.0" stroke-width="1.2"/><circle class="dot-pratt" cx="606.04" cy="458.0" r="3.0" stroke-width="1.2"/><circle class="dot-pratt" cx="614.34" cy="458.0" r="3.0" stroke-width="1.2"/><circle class="dot-pratt" cx="615.22" cy="458.0" r="3.0" stroke-width="1.2"/><circle class="dot-pratt" cx="622.63" cy="458.0" r="3.0" stroke-width="1.2"/><circle class="dot-pratt" cx="623.51" cy="458.0" r="3.0" stroke-width="1.2"/><circle class="dot-pratt" cx="630.93" cy="458.0" r="3.0" stroke-width="1.2"/><circle class="dot-pratt" cx="631.81" cy="458.0" r="3.0" stroke-width="1.2"/><circle class="dot-pratt" cx="640.10" cy="458.0" r="3.0" stroke-width="1.2"/><circle class="dot-pratt" cx="640.99" cy="458.0" r="3.0" stroke-width="1.2"/><circle class="dot-pratt" cx="648.40" cy="458.0" r="3.0" stroke-width="1.2"/><circle class="dot-pratt" cx="649.28" cy="458.0" r="3.0" stroke-width="1.2"/><circle class="dot-pratt" cx="656.70" cy="458.0" r="3.0" stroke-width="1.2"/><circle class="dot-pratt" cx="657.58" cy="458.0" r="3.0" stroke-width="1.2"/><circle class="dot-pratt" cx="664.99" cy="458.0" r="3.0" stroke-width="1.2"/><circle class="dot-pratt" cx="665.87" cy="458.0" r="3.0" stroke-width="1.2"/><circle class="dot-pratt" cx="666.75" cy="458.0" r="3.0" stroke-width="1.2"/><circle class="dot-pratt" cx="674.17" cy="458.0" r="3.0" stroke-width="1.2"/><circle class="dot-pratt" cx="675.05" cy="458.0" r="3.0" stroke-width="1.2"/><circle class="dot-pratt" cx="682.46" cy="458.0" r="3.0" stroke-width="1.2"/><circle class="dot-pratt" cx="683.35" cy="458.0" r="3.0" stroke-width="1.2"/><circle class="dot-pratt" cx="690.76" cy="458.0" r="3.0" stroke-width="1.2"/><circle class="dot-pratt" cx="691.64" cy="458.0" r="3.0" stroke-width="1.2"/><circle class="dot-pratt" cx="692.52" cy="458.0" r="3.0" stroke-width="1.2"/><circle class="dot-pratt" cx="699.94" cy="458.0" r="3.0" stroke-width="1.2"/><circle class="dot-pratt" cx="700.82" cy="458.0" r="3.0" stroke-width="1.2"/><circle class="dot-pratt" cx="708.23" cy="458.0" r="3.0" stroke-width="1.2"/><circle class="dot-pratt" cx="709.11" cy="458.0" r="3.0" stroke-width="1.2"/><circle class="dot-pratt" cx="716.53" cy="458.0" r="3.0" stroke-width="1.2"/><circle class="dot-pratt" cx="717.41" cy="458.0" r="3.0" stroke-width="1.2"/><circle class="dot-pratt" cx="718.29" cy="458.0" r="3.0" stroke-width="1.2"/><circle class="dot-pratt" cx="724.82" cy="458.0" r="3.0" stroke-width="1.2"/><circle class="dot-pratt" cx="725.70" cy="458.0" r="3.0" stroke-width="1.2"/><circle class="dot-pratt" cx="726.59" cy="458.0" r="3.0" stroke-width="1.2"/><text class="ink2" x="228.0" y="461.0" font-size="10.5" text-anchor="middle" font-variant-numeric="tabular-nums">1.22</text><text class="ink2" x="278.0" y="461.0" font-size="10.5" text-anchor="middle" font-variant-numeric="tabular-nums">71</text><line class="rule" x1="18" y1="474.0" x2="740.0" y2="474.0" stroke-width="1"/><text class="ink" x="18" y="485.0" font-size="11.5">Pratt-34 (3^p 4^q)</text><text class="muted" x="18" y="495.0" font-size="9">fewest comparisons of family</text><circle class="dot-pratt" cx="306.00" cy="483.0" r="3.0" stroke-width="1.2"/><circle class="dot-pratt" cx="346.84" cy="483.0" r="3.0" stroke-width="1.2"/><circle class="dot-pratt" cx="357.54" cy="483.0" r="3.0" stroke-width="1.2"/><circle class="dot-pratt" cx="387.68" cy="483.0" r="3.0" stroke-width="1.2"/><circle class="dot-pratt" cx="398.38" cy="483.0" r="3.0" stroke-width="1.2"/><circle class="dot-pratt" cx="409.07" cy="483.0" r="3.0" stroke-width="1.2"/><circle class="dot-pratt" cx="428.52" cy="483.0" r="3.0" stroke-width="1.2"/><circle class="dot-pratt" cx="439.22" cy="483.0" r="3.0" stroke-width="1.2"/><circle class="dot-pratt" cx="449.91" cy="483.0" r="3.0" stroke-width="1.2"/><circle class="dot-pratt" cx="460.61" cy="483.0" r="3.0" stroke-width="1.2"/><circle class="dot-pratt" cx="469.37" cy="483.0" r="3.0" stroke-width="1.2"/><circle class="dot-pratt" cx="480.06" cy="483.0" r="3.0" stroke-width="1.2"/><circle class="dot-pratt" cx="490.76" cy="483.0" r="3.0" stroke-width="1.2"/><circle class="dot-pratt" cx="501.45" cy="483.0" r="3.0" stroke-width="1.2"/><circle class="dot-pratt" cx="510.21" cy="483.0" r="3.0" stroke-width="1.2"/><circle class="dot-pratt" cx="512.15" cy="483.0" r="3.0" stroke-width="1.2"/><circle class="dot-pratt" cx="520.90" cy="483.0" r="3.0" stroke-width="1.2"/><circle class="dot-pratt" cx="531.60" cy="483.0" r="3.0" stroke-width="1.2"/><circle class="dot-pratt" cx="542.29" cy="483.0" r="3.0" stroke-width="1.2"/><circle class="dot-pratt" cx="551.05" cy="483.0" r="3.0" stroke-width="1.2"/><circle class="dot-pratt" cx="552.99" cy="483.0" r="3.0" stroke-width="1.2"/><circle class="dot-pratt" cx="561.74" cy="483.0" r="3.0" stroke-width="1.2"/><circle class="dot-pratt" cx="563.68" cy="483.0" r="3.0" stroke-width="1.2"/><circle class="dot-pratt" cx="572.44" cy="483.0" r="3.0" stroke-width="1.2"/><circle class="dot-pratt" cx="583.13" cy="483.0" r="3.0" stroke-width="1.2"/><circle class="dot-pratt" cx="591.89" cy="483.0" r="3.0" stroke-width="1.2"/><circle class="dot-pratt" cx="593.83" cy="483.0" r="3.0" stroke-width="1.2"/><circle class="dot-pratt" cx="602.59" cy="483.0" r="3.0" stroke-width="1.2"/><circle class="dot-pratt" cx="604.52" cy="483.0" r="3.0" stroke-width="1.2"/><circle class="dot-pratt" cx="613.28" cy="483.0" r="3.0" stroke-width="1.2"/><circle class="dot-pratt" cx="615.22" cy="483.0" r="3.0" stroke-width="1.2"/><circle class="dot-pratt" cx="623.98" cy="483.0" r="3.0" stroke-width="1.2"/><circle class="dot-pratt" cx="632.73" cy="483.0" r="3.0" stroke-width="1.2"/><circle class="dot-pratt" cx="634.67" cy="483.0" r="3.0" stroke-width="1.2"/><circle class="dot-pratt" cx="643.43" cy="483.0" r="3.0" stroke-width="1.2"/><circle class="dot-pratt" cx="645.36" cy="483.0" r="3.0" stroke-width="1.2"/><circle class="dot-pratt" cx="654.12" cy="483.0" r="3.0" stroke-width="1.2"/><circle class="dot-pratt" cx="656.06" cy="483.0" r="3.0" stroke-width="1.2"/><circle class="dot-pratt" cx="664.82" cy="483.0" r="3.0" stroke-width="1.2"/><circle class="dot-pratt" cx="666.75" cy="483.0" r="3.0" stroke-width="1.2"/><circle class="dot-pratt" cx="673.57" cy="483.0" r="3.0" stroke-width="1.2"/><circle class="dot-pratt" cx="675.51" cy="483.0" r="3.0" stroke-width="1.2"/><circle class="dot-pratt" cx="684.27" cy="483.0" r="3.0" stroke-width="1.2"/><circle class="dot-pratt" cx="686.21" cy="483.0" r="3.0" stroke-width="1.2"/><circle class="dot-pratt" cx="694.96" cy="483.0" r="3.0" stroke-width="1.2"/><circle class="dot-pratt" cx="696.90" cy="483.0" r="3.0" stroke-width="1.2"/><circle class="dot-pratt" cx="705.66" cy="483.0" r="3.0" stroke-width="1.2"/><circle class="dot-pratt" cx="707.60" cy="483.0" r="3.0" stroke-width="1.2"/><circle class="dot-pratt" cx="714.42" cy="483.0" r="3.0" stroke-width="1.2"/><circle class="dot-pratt" cx="716.35" cy="483.0" r="3.0" stroke-width="1.2"/><circle class="dot-pratt" cx="718.29" cy="483.0" r="3.0" stroke-width="1.2"/><circle class="dot-pratt" cx="725.11" cy="483.0" r="3.0" stroke-width="1.2"/><circle class="dot-pratt" cx="727.05" cy="483.0" r="3.0" stroke-width="1.2"/><text class="ink2" x="228.0" y="486.0" font-size="10.5" text-anchor="middle" font-variant-numeric="tabular-nums">1.27</text><text class="ink2" x="278.0" y="486.0" font-size="10.5" text-anchor="middle" font-variant-numeric="tabular-nums">53</text><line class="rule" x1="18" y1="499.0" x2="740.0" y2="499.0" stroke-width="1"/><text class="ink" x="18" y="510.0" font-size="11.5">Frank-Lazarus 1960</text><text class="muted" x="18" y="520.0" font-size="9">N-derived, odd-forced</text><circle class="dot-historical" cx="306.00" cy="508.0" r="3.0" stroke-width="1.2"/><circle class="dot-historical" cx="346.84" cy="508.0" r="3.0" stroke-width="1.2"/><circle class="dot-historical" cx="378.34" cy="508.0" r="3.0" stroke-width="1.2"/><circle class="dot-historical" cx="401.35" cy="508.0" r="3.0" stroke-width="1.2"/><circle class="dot-historical" cx="425.66" cy="508.0" r="3.0" stroke-width="1.2"/><circle class="dot-historical" cx="450.68" cy="508.0" r="3.0" stroke-width="1.2"/><circle class="dot-historical" cx="476.07" cy="508.0" r="3.0" stroke-width="1.2"/><circle class="dot-historical" cx="502.03" cy="508.0" r="3.0" stroke-width="1.2"/><circle class="dot-historical" cx="527.89" cy="508.0" r="3.0" stroke-width="1.2"/><circle class="dot-historical" cx="553.61" cy="508.0" r="3.0" stroke-width="1.2"/><circle class="dot-historical" cx="579.40" cy="508.0" r="3.0" stroke-width="1.2"/><circle class="dot-historical" cx="605.16" cy="508.0" r="3.0" stroke-width="1.2"/><circle class="dot-historical" cx="630.93" cy="508.0" r="3.0" stroke-width="1.2"/><circle class="dot-historical" cx="656.70" cy="508.0" r="3.0" stroke-width="1.2"/><circle class="dot-historical" cx="682.47" cy="508.0" r="3.0" stroke-width="1.2"/><circle class="dot-historical" cx="708.23" cy="508.0" r="3.0" stroke-width="1.2"/><text class="ink2" x="228.0" y="511.0" font-size="10.5" text-anchor="middle" font-variant-numeric="tabular-nums">2.00</text><text class="ink2" x="278.0" y="511.0" font-size="10.5" text-anchor="middle" font-variant-numeric="tabular-nums">16</text><line class="rule" x1="18" y1="524.0" x2="740.0" y2="524.0" stroke-width="1"/><text class="ink" x="18" y="535.0" font-size="11.5">Shell 1959</text><text class="muted" x="18" y="545.0" font-size="9">negative control, N^2</text><circle class="dot-historical" cx="306.00" cy="533.0" r="3.0" stroke-width="1.2"/><circle class="dot-historical" cx="346.84" cy="533.0" r="3.0" stroke-width="1.2"/><circle class="dot-historical" cx="372.61" cy="533.0" r="3.0" stroke-width="1.2"/><circle class="dot-historical" cx="398.38" cy="533.0" r="3.0" stroke-width="1.2"/><circle class="dot-historical" cx="424.15" cy="533.0" r="3.0" stroke-width="1.2"/><circle class="dot-historical" cx="449.91" cy="533.0" r="3.0" stroke-width="1.2"/><circle class="dot-historical" cx="476.07" cy="533.0" r="3.0" stroke-width="1.2"/><circle class="dot-historical" cx="502.03" cy="533.0" r="3.0" stroke-width="1.2"/><circle class="dot-historical" cx="527.80" cy="533.0" r="3.0" stroke-width="1.2"/><circle class="dot-historical" cx="553.61" cy="533.0" r="3.0" stroke-width="1.2"/><circle class="dot-historical" cx="579.38" cy="533.0" r="3.0" stroke-width="1.2"/><circle class="dot-historical" cx="605.16" cy="533.0" r="3.0" stroke-width="1.2"/><circle class="dot-historical" cx="630.93" cy="533.0" r="3.0" stroke-width="1.2"/><circle class="dot-historical" cx="656.70" cy="533.0" r="3.0" stroke-width="1.2"/><circle class="dot-historical" cx="682.46" cy="533.0" r="3.0" stroke-width="1.2"/><circle class="dot-historical" cx="708.23" cy="533.0" r="3.0" stroke-width="1.2"/><text class="ink2" x="228.0" y="536.0" font-size="10.5" text-anchor="middle" font-variant-numeric="tabular-nums">2.00</text><text class="ink2" x="278.0" y="536.0" font-size="10.5" text-anchor="middle" font-variant-numeric="tabular-nums">16</text></svg>